<?xml version="1.0" standalone="no"?><!DOCTYPE svg PUBLIC "-//W3C//DTD SVG 1.1//EN" "http://www.w3.org/Graphics/SVG/1.1/DTD/svg11.dtd"><svg t="1532311815111" class="icon" style="" viewBox="0 0 1024 1024" version="1.1" xmlns="http://www.w3.org/2000/svg" p-id="6216" xmlns:xlink="http://www.w3.org/1999/xlink" width="200" height="200"><defs><style type="text/css"></style></defs><path d="M852 892.8V321.2c0-132-108-240-240-240H412c-132 0-240 108-240 240v571.7H64v50h896v-50H852z m-50 0H222V321.2c0-25.5 5-50.3 15-73.6 9.6-22.6 23.4-43 40.9-60.5s37.9-31.3 60.5-40.9c23.4-9.9 48.1-15 73.6-15h200c25.5 0 50.3 5 73.6 15 22.6 9.6 43 23.4 60.5 40.9s31.3 37.9 40.9 60.5c9.9 23.4 15 48.1 15 73.6v571.6zM552.9 233.9L346 596.6h115.1v203.5L678 440.8H552.9V233.9z m36.5 256.9l-78.3 129.7v-73.9H432l70.8-124.1v68.3h86.6z" fill="" p-id="6217"></path></svg>