<?xml version="1.0" encoding="utf-8"?>
<!-- Svg Vector Icons : http://www.sfont.cn -->
<!DOCTYPE svg PUBLIC "-//W3C//DTD SVG 1.1//EN" "http://www.w3.org/Graphics/SVG/1.1/DTD/svg11.dtd">
<svg version="1.1" xmlns="http://www.w3.org/2000/svg" xmlns:xlink="http://www.w3.org/1999/xlink" x="0px" y="0px" viewBox="0 0 1000 1000" enable-background="new 0 0 1000 1000" xml:space="preserve">
<metadata> Svg Vector Icons : http://www.sfont.cn </metadata>
<g><g><g id="chart_2"><g><path d="M40.6,959.4V10H10v980h980v-30.6H40.6z M342.5,683.8c118.4-6.6,202.1-360.9,248.3-360.9c38.2,0,92.7,283.2,186.7,326.5c72.1,33.2,211.6,3.8,211.6,3.8v-61.3c0,0-159.1,31.5-202.7-12.3C725.8,519.1,687.7,255,591.9,255c-104,0-188.4,368.4-263.2,368.4C177.9,623.4,144,469,144,469l-42.1,31C101.9,500,119.3,696.3,342.5,683.8z"/></g></g></g><g></g><g></g><g></g><g></g><g></g><g></g><g></g><g></g><g></g><g></g><g></g><g></g><g></g><g></g><g></g></g>
</svg>