<?xml version="1.0" standalone="no"?><!DOCTYPE svg PUBLIC "-//W3C//DTD SVG 1.1//EN" "http://www.w3.org/Graphics/SVG/1.1/DTD/svg11.dtd"><svg t="1532311744641" class="icon" style="" viewBox="0 0 1024 1024" version="1.1" xmlns="http://www.w3.org/2000/svg" p-id="5396" xmlns:xlink="http://www.w3.org/1999/xlink" width="200" height="200"><defs><style type="text/css"></style></defs><path d="M291.953863 757.071601l360.01754 0c14.131859 0 25.628704-11.496845 25.628704-25.629727 0-14.131859-11.496845-25.628704-25.628704-25.628704L291.953863 705.813171c-14.131859 0-25.628704 11.496845-25.628704 25.628704C266.32516 745.574756 277.822005 757.071601 291.953863 757.071601zM291.953863 517.060249l240.010329 0c14.132882 0 25.629727-11.496845 25.629727-25.629727 0-14.131859-11.496845-25.628704-25.629727-25.628704L291.953863 465.801818c-14.131859 0-25.628704 11.496845-25.628704 25.628704C266.32516 505.563404 277.822005 517.060249 291.953863 517.060249zM831.978127 185.789427 677.600107 185.789427l0-34.374902c0-25.160029-20.469194-45.629223-45.629223-45.629223l-74.722842 0c-2.783393-22.51376-22.029736-40.001039-45.284369-40.001039-23.255657 0-42.503023 17.48728-45.285393 40.001039l-74.720795 0c-25.160029 0-45.630247 20.469194-45.630247 45.629223l0 34.374902L191.949218 185.789427c-25.160029 0-45.630247 20.469194-45.630247 45.630247l0 680.031994c0 25.161053 20.469194 45.63127 45.630247 45.63127l640.029932 0c25.161053 0 45.63127-20.470217 45.63127-45.63127L877.61042 231.419673C877.609397 206.259644 857.13918 185.789427 831.978127 185.789427zM397.586692 157.042709l228.756007 0 0 68.74878L397.586692 225.791489 397.586692 157.042709zM826.349943 905.824507 197.577403 905.824507 197.577403 357.053022l628.773564 0L826.350966 905.824507zM826.349943 305.794591 197.577403 305.794591l0-68.746734 149.096736 0c2.78237 22.51376 22.029736 40.001039 45.284369 40.001039l240.012376 0c23.254633 0 42.500976-17.48728 45.284369-40.001039l149.09469 0L826.349943 305.794591zM291.953863 637.066437 731.974505 637.066437c14.132882 0 25.629727-11.496845 25.629727-25.629727s-11.496845-25.629727-25.629727-25.629727L291.953863 585.806983c-14.131859 0-25.628704 11.496845-25.628704 25.629727S277.822005 637.066437 291.953863 637.066437z" p-id="5397"></path></svg>