<?xml version="1.0" encoding="utf-8"?>
<!-- Svg Vector Icons : http://www.sfont.cn -->
<!DOCTYPE svg PUBLIC "-//W3C//DTD SVG 1.1//EN" "http://www.w3.org/Graphics/SVG/1.1/DTD/svg11.dtd">
<svg version="1.1" xmlns="http://www.w3.org/2000/svg" xmlns:xlink="http://www.w3.org/1999/xlink" x="0px" y="0px" viewBox="0 0 1000 1000" enable-background="new 0 0 1000 1000" xml:space="preserve">
<metadata> Svg Vector Icons : http://www.sfont.cn </metadata>
<g><g transform="translate(0.000000,511.000000) scale(0.100000,-0.100000)"><path d="M4536.7,4996.8c-1198.9-125.7-2232.3-624.4-3062.2-1478.2c-389-401-664.3-796-899.7-1284.7c-237.4-496.7-369.1-937.6-450.9-1516.1C92,484.3,92-265.7,123.9-499.1C283.5-1612.3,724.4-2526,1474.5-3300c796-817.9,1743.5-1294.7,2912.6-1462.3c275.3-39.9,1003.4-31.9,1296.7,12C6790.9-4582.7,7746.5-4094,8516.5-3300c383,393,660.3,790,889.7,1264.8c504.7,1043.3,626.4,2222.3,347.1,3341.5C9402.2,2710.7,8424.7,3905.6,7120.1,4530c-482.8,229.4-885.8,353.1-1426.4,436.9C5446.4,5004.8,4778.1,5020.8,4536.7,4996.8z M5673.8,4667.7c1504.2-233.4,2778.9-1171,3441.2-2529.5c219.4-448.9,361.1-917.7,432.9-1420.4c31.9-231.4,31.9-945.6,0-1177C9476-962,9334.4-1430.8,9115-1879.6c-452.9-929.6-1181-1657.8-2110.6-2110.6c-448.9-219.4-917.7-361.1-1420.4-432.9c-231.4-31.9-945.6-31.9-1177,0c-502.7,71.8-971.5,213.5-1420.4,432.9C1620.1-3323.9,690.5-2053.2,453.1-529.1c-41.9,281.3-47.9,975.5-10,1246.8c121.7,853.8,456.8,1631.8,977.5,2284.2c764.1,953.6,1877.2,1556,3126,1695.7C4776,4723.5,5428.4,4705.6,5673.8,4667.7z"/><path d="M5562.1,3484.7c-476.8-291.3-879.8-718.2-1065.3-1131.1S4277.3,1473.8,4399,1001C4538.7,454.4,4827.9-24.4,5494.2-808.3c175.5-205.5,343.1-456.8,397-592.5c79.8-205.5,135.7-496.7,171.6-909.7c16-181.5,10-183.5,193.5,39.9c269.3,331.1,486.7,704.2,598.5,1025.4c57.8,169.6,63.8,209.5,63.8,416.9c0,201.5-8,247.4-57.9,379C6693.1-2.4,6322.1,394.6,5607.9,885.3c-315.2,217.4-440.9,377-536.6,680.3c-39.9,127.7-45.9,189.5-43.9,418.9c2,432.9,79.8,638.4,450.8,1208.9c253.4,385,241.4,367.1,221.4,367.1C5691.7,3558.5,5629.9,3526.6,5562.1,3484.7z"/><path d="M3956.2,1691.3c-329.2-225.4-606.5-532.6-744.1-825.9c-109.7-231.4-139.6-373-139.6-646.3c2-552.6,229.4-1025.4,847.8-1765.5c367.1-438.9,440.9-602.5,506.7-1105.2c16-131.7,33.9-241.4,37.9-247.4c12-12,201.5,223.4,313.2,387c596.5,883.7,407,1450.3-748.1,2244.3C3748.7-76.2,3621,151.2,3605,488.3c-17.9,355.1,65.8,596.5,359.1,1025.4c199.5,291.3,199.5,291.3,179.5,291.3C4133.7,1805,4049.9,1753.1,3956.2,1691.3z"/></g></g>
</svg>